<svg width="25" height="25" viewBox="0 0 25 25" fill="none" xmlns="http://www.w3.org/2000/svg">
<path d="M12.1428 14.7143V23.2857" stroke="white" stroke-width="1.71429" stroke-linecap="round" stroke-linejoin="round"/>
<path d="M7.85718 23.2857H16.4286" stroke="white" stroke-width="1.71429" stroke-linecap="round" stroke-linejoin="round"/>
<path d="M6.14286 9.57144C4.77889 9.57144 3.47078 9.0296 2.50631 8.06513C1.54184 7.10066 1 5.79255 1 4.42858V2.71429H7V9.57144H6.14286Z" stroke="white" stroke-width="1.71429" stroke-linecap="round" stroke-linejoin="round"/>
<path d="M18.1429 9.57144C19.5069 9.57144 20.815 9.0296 21.7795 8.06513C22.7439 7.10066 23.2858 5.79255 23.2858 4.42858V2.71429H17.2858V9.57144H18.1429Z" stroke="white" stroke-width="1.71429" stroke-linecap="round" stroke-linejoin="round"/>
<path d="M17.2857 9.57143C17.2857 10.9354 16.7439 12.2435 15.7794 13.208C14.8149 14.1725 13.5068 14.7143 12.1429 14.7143C10.7789 14.7143 9.47078 14.1725 8.50631 13.208C7.54184 12.2435 7 10.9354 7 9.57143V1H17.2857V9.57143Z" stroke="white" stroke-width="1.71429" stroke-linecap="round" stroke-linejoin="round"/>
</svg>
