<svg width="18" height="27" viewBox="0 0 18 27" fill="none" xmlns="http://www.w3.org/2000/svg">
<path d="M1.61401 8.56874L16.0247 2.01501" stroke="white" stroke-width="1.71429" stroke-linecap="round" stroke-linejoin="round"/>
<path d="M13.3304 1L16.0246 2.01501L15.0221 4.70918" stroke="white" stroke-width="1.71429" stroke-linecap="round" stroke-linejoin="round"/>
<path d="M16.6638 17.3029H13.5311V8.53114C13.5311 8.36497 13.5971 8.20561 13.7146 8.0881C13.8321 7.9706 13.9914 7.90459 14.1576 7.90459H16.0373C16.2034 7.90459 16.3628 7.9706 16.4803 8.0881C16.5978 8.20561 16.6638 8.36497 16.6638 8.53114V17.3029Z" stroke="white" stroke-width="1.71429" stroke-linecap="round" stroke-linejoin="round"/>
<path d="M10.3983 17.3029H7.26556L7.26556 10.4108C7.26556 10.2446 7.33157 10.0853 7.44907 9.96776C7.56657 9.85026 7.72594 9.78424 7.89211 9.78424H9.77176C9.93794 9.78424 10.0973 9.85026 10.2148 9.96776C10.3323 10.0853 10.3983 10.2446 10.3983 10.4108V17.3029Z" stroke="white" stroke-width="1.71429" stroke-linecap="round" stroke-linejoin="round"/>
<path d="M4.13281 17.3029H1.00006L1.00006 12.2904C1.00006 12.1243 1.06607 11.9649 1.18357 11.8474C1.30107 11.7299 1.46044 11.6639 1.62661 11.6639H3.50626C3.67243 11.6639 3.8318 11.7299 3.9493 11.8474C4.0668 11.9649 4.13281 12.1243 4.13281 12.2904L4.13281 17.3029Z" stroke="white" stroke-width="1.71429" stroke-linecap="round" stroke-linejoin="round"/>
<path d="M9.98932 18.5694L11.1791 18.6973L15.1014 20.8774L15.1013 20.8777L15.1087 20.8811C15.6007 21.1039 15.9 21.5967 15.9 22.14V25.4982C15.871 26.2643 15.2643 26.871 14.4982 26.9H9C8.64662 26.9 8.31356 26.7607 8.07328 26.502L8.07329 26.5019L8.07241 26.501L4.13839 22.3703L4.8121 21.6693L4.81213 21.6693L4.81415 21.6671C4.98308 21.4804 5.22494 21.38 5.5 21.38H5.66674L7.94011 23.0801L8.1 23.1997V23V14C8.1 13.5052 8.50523 13.1 9 13.1C9.49477 13.1 9.9 13.5052 9.9 14V18.47V18.5598L9.98932 18.5694Z" fill="white" stroke="black" stroke-width="0.2"/>
</svg>
