<svg width="25" height="25" viewBox="0 0 25 25" fill="none" xmlns="http://www.w3.org/2000/svg">
<path d="M3.79991 6.14286C5.2276 6.14286 6.38497 4.99159 6.38497 3.57143C6.38497 2.15127 5.2276 1 3.79991 1C2.37222 1 1.21484 2.15127 1.21484 3.57143C1.21484 4.99159 2.37222 6.14286 3.79991 6.14286Z" stroke="#9EA0AA" stroke-width="1.71429" stroke-linecap="round" stroke-linejoin="round"/>
<path d="M6.38477 3.57129H23.6185" stroke="#9EA0AA" stroke-width="1.71429" stroke-linecap="round" stroke-linejoin="round"/>
<path d="M12.4161 14.7141C13.8438 14.7141 15.0012 13.5629 15.0012 12.1427C15.0012 10.7226 13.8438 9.57129 12.4161 9.57129C10.9884 9.57129 9.83105 10.7226 9.83105 12.1427C9.83105 13.5629 10.9884 14.7141 12.4161 14.7141Z" stroke="#9EA0AA" stroke-width="1.71429" stroke-linecap="round" stroke-linejoin="round"/>
<path d="M1.21484 12.1426H9.83172" stroke="#9EA0AA" stroke-width="1.71429" stroke-linecap="round" stroke-linejoin="round"/>
<path d="M15.0029 12.1426H23.6198" stroke="#9EA0AA" stroke-width="1.71429" stroke-linecap="round" stroke-linejoin="round"/>
<path d="M21.0333 23.2854C22.461 23.2854 23.6184 22.1342 23.6184 20.714C23.6184 19.2938 22.461 18.1426 21.0333 18.1426C19.6056 18.1426 18.4482 19.2938 18.4482 20.714C18.4482 22.1342 19.6056 23.2854 21.0333 23.2854Z" stroke="#9EA0AA" stroke-width="1.71429" stroke-linecap="round" stroke-linejoin="round"/>
<path d="M18.4486 20.7139H1.21484" stroke="#9EA0AA" stroke-width="1.71429" stroke-linecap="round" stroke-linejoin="round"/>
</svg>
