<svg width="25" height="25" viewBox="0 0 25 25" fill="none" xmlns="http://www.w3.org/2000/svg">
<path d="M14.7143 1H2.71429C2.25963 1 1.82359 1.18061 1.5021 1.5021C1.18061 1.82359 1 2.25963 1 2.71429V21.5714C1 22.0261 1.18061 22.4621 1.5021 22.7836C1.82359 23.1051 2.25963 23.2857 2.71429 23.2857H21.5714C22.0261 23.2857 22.4621 23.1051 22.7836 22.7836C23.1051 22.4621 23.2857 22.0261 23.2857 21.5714V9.57143L14.7143 1Z" stroke="white" stroke-width="1.71429" stroke-linecap="round" stroke-linejoin="round"/>
<path d="M14.7142 8.71429V1L23.2857 9.57143H15.5714C15.344 9.57143 15.126 9.48112 14.9653 9.32038C14.8045 9.15963 14.7142 8.94161 14.7142 8.71429Z" stroke="white" stroke-width="1.71429" stroke-linecap="round" stroke-linejoin="round"/>
<path d="M7.85718 7.85713V5.28571" stroke="white" stroke-width="1.71429" stroke-linecap="round" stroke-linejoin="round"/>
<path d="M5.28577 14.7143C5.28577 16 6.43434 16.4285 7.8572 16.4285C9.28005 16.4285 10.4286 16.4285 10.4286 14.7143C10.4286 12.1428 5.28577 12.1428 5.28577 9.5714C5.28577 7.85712 6.43434 7.85712 7.8572 7.85712C9.28005 7.85712 10.4286 8.50855 10.4286 9.5714" stroke="white" stroke-width="1.71429" stroke-linecap="round" stroke-linejoin="round"/>
<path d="M7.85718 16.4286V19" stroke="white" stroke-width="1.71429" stroke-linecap="round" stroke-linejoin="round"/>
<path d="M14.7142 16.4286H19.8571" stroke="white" stroke-width="1.71429" stroke-linecap="round" stroke-linejoin="round"/>
</svg>
