<svg width="25" height="25" viewBox="0 0 25 25" fill="none" xmlns="http://www.w3.org/2000/svg">
<path d="M12.8682 14.7139V23.2853" stroke="#9EA0AA" stroke-width="1.71429" stroke-linecap="round" stroke-linejoin="round"/>
<path d="M8.55957 23.2861H17.1764" stroke="#9EA0AA" stroke-width="1.71429" stroke-linecap="round" stroke-linejoin="round"/>
<path d="M6.83614 9.57101C5.46494 9.57101 4.1499 9.02917 3.18031 8.0647C2.21072 7.10023 1.66602 5.79212 1.66602 4.42815V2.71387H7.69783V9.57101H6.83614Z" stroke="#9EA0AA" stroke-width="1.71429" stroke-linecap="round" stroke-linejoin="round"/>
<path d="M18.8998 9.57101C20.271 9.57101 21.586 9.02917 22.5556 8.0647C23.5252 7.10023 24.0699 5.79212 24.0699 4.42815V2.71387H18.0381V9.57101H18.8998Z" stroke="#9EA0AA" stroke-width="1.71429" stroke-linecap="round" stroke-linejoin="round"/>
<path d="M18.0375 9.57143C18.0375 10.9354 17.4928 12.2435 16.5232 13.208C15.5536 14.1725 14.2386 14.7143 12.8674 14.7143C11.4962 14.7143 10.1811 14.1725 9.21156 13.208C8.24197 12.2435 7.69727 10.9354 7.69727 9.57143V1H18.0375V9.57143Z" stroke="#9EA0AA" stroke-width="1.71429" stroke-linecap="round" stroke-linejoin="round"/>
</svg>
