<svg width="18" height="19" viewBox="0 0 18 19" fill="none" xmlns="http://www.w3.org/2000/svg">
<path d="M1.83203 8.56837L16.3191 2.01465" stroke="#9EA0AA" stroke-width="1.71429" stroke-linecap="round" stroke-linejoin="round"/>
<path d="M13.6113 1L16.3198 2.01501L15.312 4.70918" stroke="#9EA0AA" stroke-width="1.71429" stroke-linecap="round" stroke-linejoin="round"/>
<path d="M16.9619 17.3027H13.8125V8.53102C13.8125 8.36485 13.8789 8.20548 13.997 8.08798C14.1152 7.97048 14.2754 7.90447 14.4424 7.90447H16.332C16.4991 7.90447 16.6593 7.97048 16.7774 8.08798C16.8956 8.20548 16.9619 8.36485 16.9619 8.53102V17.3027Z" stroke="#9EA0AA" stroke-width="1.71429" stroke-linecap="round" stroke-linejoin="round"/>
<path d="M10.6631 17.3027H7.51372L7.51372 10.4107C7.51372 10.2445 7.58008 10.0851 7.69821 9.96763C7.81633 9.85013 7.97654 9.78412 8.14359 9.78412H10.0332C10.2003 9.78412 10.3605 9.85013 10.4786 9.96763C10.5967 10.0851 10.6631 10.2445 10.6631 10.4107V17.3027Z" stroke="#9EA0AA" stroke-width="1.71429" stroke-linecap="round" stroke-linejoin="round"/>
<path d="M4.36426 17.3027H1.21489L1.21489 12.2903C1.21489 12.1242 1.28126 11.9648 1.39938 11.8473C1.5175 11.7298 1.67771 11.6638 1.84477 11.6638H3.73438C3.90144 11.6638 4.06165 11.7298 4.17977 11.8473C4.2979 11.9648 4.36426 12.1242 4.36426 12.2903L4.36426 17.3027Z" stroke="#9EA0AA" stroke-width="1.71429" stroke-linecap="round" stroke-linejoin="round"/>
</svg>
